<svg width="24" height="18" viewBox="0 0 24 18" fill="none" xmlns="http://www.w3.org/2000/svg">
<path d="M12.0149 17.6731H11.9909C11.9165 17.6731 4.47908 17.6587 2.60263 17.1491C1.57079 16.8711 0.764971 16.0649 0.487581 15.0329C0.150153 13.1293 -0.0127889 11.1988 0.00078273 9.26563C-0.00793511 7.32924 0.159416 5.39608 0.50077 3.49C0.785783 2.45706 1.58807 1.64706 2.61822 1.35216C4.44311 0.872559 11.6755 0.872559 11.9825 0.872559H12.0077C12.0832 0.872559 19.5398 0.886947 21.3971 1.39653C22.4268 1.67591 23.231 2.48055 23.5098 3.51038C23.8579 5.42105 24.0214 7.36081 23.9978 9.3028C24.0062 11.2368 23.8384 13.1676 23.4966 15.0712C23.2156 16.102 22.4093 16.9065 21.3779 17.1851C19.5554 17.6683 12.3218 17.6731 12.0149 17.6731ZM9.61684 5.67459L9.61085 12.8687L15.8601 9.27162L9.61684 5.67459Z" fill="currentColor"/>
</svg>
